<?xml version="1.0" encoding="utf-8"?>
<!-- Generator: Adobe Illustrator 23.1.1, SVG Export Plug-In . SVG Version: 6.00 Build 0)  -->
<svg version="1.1" id="レイヤー_1" xmlns="http://www.w3.org/2000/svg" xmlns:xlink="http://www.w3.org/1999/xlink" x="0px"
	 y="0px" viewBox="0 0 242.5 56.3" style="enable-background:new 0 0 242.5 56.3;" xml:space="preserve">
<style type="text/css">
	.st0{fill:#152041;}
	.st1{fill:#D2D3D2;}
	.st2{fill:#FFFFFF;}
	.st3{enable-background:new    ;}
</style>
<g id="グループ_3049" transform="translate(-1009.492 -492.639)">
	<g>
		<g>
			<g>
				<g>
					<rect x="1009.9" y="492.6" class="st0" width="151.3" height="36.2"/>
				</g>
			</g>
			<path class="st1" d="M1063.2,506.2v2.4c0,0.2,0,0.4,0.1,0.5s0.2,0.2,0.3,0.3c0.1,0.1,0.3,0.1,0.5,0.1s0.4,0,0.6,0v0.3h-4.1v-0.3
				c0.3,0,0.5,0,0.7-0.1c0.2,0,0.3-0.1,0.4-0.2s0.1-0.2,0.2-0.3c0-0.1,0-0.3,0-0.5v-4.9c0-0.4,0-0.7-0.1-0.9c0-0.2-0.1-0.3-0.3-0.4
				c-0.2-0.1-0.5-0.1-0.9-0.1v-0.3h3.8c0.2,0,0.6,0,1.2,0.1c0.2,0,0.4,0.1,0.7,0.2c0.2,0.1,0.5,0.2,0.7,0.4c0.2,0.2,0.4,0.4,0.5,0.6
				s0.2,0.5,0.2,0.8s-0.1,0.6-0.2,0.9s-0.3,0.5-0.6,0.7c-0.3,0.2-0.6,0.3-1,0.4s-0.9,0.2-1.4,0.2L1063.2,506.2L1063.2,506.2z
				 M1062,503.5v5.3c0,0.4-0.1,0.6-0.4,0.7h0.1c0.4,0,0.6-0.2,0.6-0.6v-5.1c0-0.5,0-0.8,0-0.9s0-0.3-0.1-0.4c0-0.1-0.1-0.2-0.2-0.2
				s-0.3-0.1-0.5-0.1c0.2,0.1,0.3,0.2,0.3,0.2c0.1,0.1,0.1,0.2,0.1,0.4C1061.9,503,1062,503.2,1062,503.5 M1063.2,505.9h0.8
				c0.5,0,0.9-0.1,1.2-0.2c0.3-0.1,0.6-0.3,0.7-0.6c0.2-0.3,0.3-0.6,0.3-1.1c0-0.7-0.2-1.2-0.7-1.5c-0.2-0.1-0.4-0.2-0.6-0.3
				c-0.2,0-0.4-0.1-0.7-0.1c-0.3,0-0.5,0-0.7,0.1c-0.1,0.1-0.2,0.2-0.3,0.4c0,0.2-0.1,0.4-0.1,0.8L1063.2,505.9L1063.2,505.9z
				 M1065.3,505.8c0.4-0.1,0.8-0.2,1-0.5s0.3-0.7,0.3-1.2c0-0.6-0.1-1-0.3-1.2c-0.2-0.3-0.6-0.5-1-0.6c0.2,0.1,0.4,0.2,0.5,0.4
				c0.1,0.2,0.3,0.4,0.3,0.6c0.1,0.2,0.1,0.5,0.1,0.8C1066.3,505,1066,505.6,1065.3,505.8"/>
			<path class="st1" d="M1074.6,509.8h-3.9v-0.3c0.4,0,0.6,0,0.8-0.1c0.2-0.1,0.3-0.1,0.4-0.3c0.1-0.1,0.1-0.3,0.1-0.6v-5.2
				c0-0.3,0-0.5-0.1-0.7c-0.1-0.1-0.2-0.2-0.3-0.3c-0.2-0.1-0.5-0.1-0.8-0.1v-0.3h4.4c0.6,0,1,0.1,1.5,0.3c0.4,0.2,0.7,0.4,0.9,0.8
				c0.2,0.3,0.3,0.7,0.3,1c0,0.2,0,0.5-0.1,0.7s-0.2,0.4-0.4,0.6c-0.2,0.2-0.4,0.3-0.7,0.5c-0.3,0.1-0.6,0.2-0.9,0.3
				c0.3,0.3,0.6,0.6,0.9,1.1l0.6,0.7l0.1,0.1c0,0.1,0.1,0.1,0.2,0.2c0.2,0.2,0.3,0.4,0.5,0.5c0.1,0.1,0.2,0.3,0.4,0.4
				c0.1,0.1,0.2,0.2,0.4,0.3c0.1,0.1,0.2,0.1,0.4,0.2v0.3h-1.1c-0.2,0-0.5-0.1-0.7-0.2s-0.4-0.3-0.6-0.4c-0.2-0.2-0.4-0.4-0.7-0.8
				l-0.8-1c-0.4-0.5-0.6-0.8-0.8-1c-0.2-0.2-0.3-0.3-0.5-0.3h-0.6v2.4c0,0.2,0,0.4,0.1,0.6c0.1,0.1,0.2,0.2,0.4,0.3
				c0.1,0,0.2,0.1,0.4,0.1c0.2,0,0.3,0,0.4,0v0.2L1074.6,509.8L1074.6,509.8z M1072.1,503.2v5.5c0,0.4-0.1,0.6-0.4,0.7
				c0.5,0,0.7-0.2,0.7-0.6v-5.6c0-0.3,0-0.5,0-0.7c0-0.1-0.1-0.3-0.2-0.3c-0.1-0.1-0.3-0.1-0.5-0.1c0.2,0.1,0.3,0.2,0.4,0.3
				C1072.1,502.7,1072.1,502.9,1072.1,503.2 M1073.3,503.3v2.5h0.9c0.3,0,0.6,0,0.9-0.1s0.5-0.2,0.7-0.4c0.3-0.3,0.5-0.7,0.5-1.3
				c0-0.7-0.2-1.2-0.7-1.5c-0.2-0.1-0.3-0.2-0.5-0.2s-0.4-0.1-0.7-0.1c-0.3,0-0.5,0-0.7,0.1c-0.1,0.1-0.2,0.2-0.3,0.3
				C1073.3,502.8,1073.3,503,1073.3,503.3 M1074.8,506.2h-0.5c0.1,0.1,0.3,0.3,0.5,0.5s0.4,0.5,0.7,0.8c0.3,0.3,0.5,0.7,0.8,1
				c0.2,0.3,0.5,0.6,0.7,0.7c0.2,0.2,0.4,0.3,0.6,0.3s0.3,0.1,0.5,0.1c-0.2-0.1-0.5-0.3-0.7-0.5s-0.4-0.4-0.7-0.7
				c-0.2-0.3-0.5-0.6-0.8-0.9s-0.5-0.6-0.8-0.9c0-0.1-0.1-0.1-0.1-0.2S1074.9,506.2,1074.8,506.2 M1075.3,505.8
				c0.5-0.1,0.9-0.2,1.2-0.6c0.3-0.3,0.4-0.7,0.4-1.3c0-0.5-0.1-0.9-0.4-1.2c-0.2-0.3-0.6-0.5-1-0.6c0.3,0.2,0.6,0.4,0.8,0.7
				c0.2,0.3,0.2,0.7,0.2,1.2s-0.1,0.9-0.3,1.1C1076,505.5,1075.7,505.7,1075.3,505.8"/>
			<path class="st1" d="M1084.6,505.5v2.5c0,0.3,0,0.5,0.1,0.6c0,0.2,0.1,0.3,0.2,0.3c0.1,0.1,0.3,0.1,0.4,0.1c0.2,0,0.5,0,0.8,0
				c0.4,0,0.8-0.1,1.1-0.2c0.3-0.1,0.6-0.3,0.9-0.6c0.3-0.2,0.6-0.6,0.9-1h0.4l-0.7,2h-6.9v-0.3c0.3,0,0.6,0,0.8-0.1
				c0.2-0.1,0.3-0.1,0.4-0.3c0.1-0.1,0.1-0.3,0.1-0.5v-5.5c0-0.3,0-0.5-0.1-0.6s-0.2-0.2-0.3-0.2c-0.2,0-0.4-0.1-0.8-0.1v-0.3h6.6
				l0.7,1.8h-0.4c-0.2-0.3-0.5-0.5-0.8-0.7s-0.7-0.4-1-0.5c-0.4-0.1-0.8-0.2-1.2-0.2c-0.3,0-0.6,0-0.8,0.1c-0.2,0.1-0.3,0.2-0.3,0.3
				c-0.1,0.1-0.1,0.3-0.1,0.5v2.4h1.1c1,0,1.5-0.4,1.5-1.3h0.4v3h-0.3c0-0.5-0.2-0.8-0.4-1c-0.2-0.2-0.5-0.3-1-0.3h-1.3
				L1084.6,505.5L1084.6,505.5z M1083.4,502.8v5.4c0,0.3,0,0.5-0.1,0.6s-0.2,0.2-0.3,0.3c0.3,0,0.5-0.1,0.6-0.2
				c0.1-0.2,0.1-0.4,0.1-0.8v-5.4c0-0.3-0.1-0.5-0.2-0.6s-0.3-0.2-0.6-0.2c0.1,0.1,0.2,0.2,0.3,0.3
				C1083.4,502.3,1083.4,502.5,1083.4,502.8 M1087.1,505.8v-1.1c-0.1,0.2-0.4,0.4-0.8,0.5c0.2,0.1,0.4,0.1,0.5,0.2
				C1087,505.6,1087.1,505.7,1087.1,505.8 M1088,501.8h-1c0.3,0.1,0.5,0.2,0.7,0.3c0.2,0.1,0.4,0.3,0.7,0.5L1088,501.8z
				 M1088.3,509.1l0.4-1c-0.2,0.2-0.4,0.4-0.6,0.5s-0.4,0.3-0.8,0.4h1V509.1z"/>
			<path class="st1" d="M1092.9,506.5h0.4c0.2,0.6,0.5,1.1,0.7,1.5c0.3,0.4,0.6,0.7,0.9,0.9c0.3,0.2,0.7,0.3,1.1,0.3
				c0.5,0,0.9-0.1,1.2-0.4c0.3-0.3,0.5-0.7,0.5-1.1s-0.1-0.8-0.3-1c-0.2-0.2-0.5-0.4-0.8-0.5s-0.7-0.2-1.2-0.3
				c-0.5-0.1-0.9-0.2-1.1-0.2c-0.3-0.1-0.6-0.3-0.8-0.5c-0.2-0.2-0.4-0.4-0.5-0.7c-0.1-0.3-0.2-0.6-0.2-0.9s0.1-0.6,0.2-0.9
				s0.3-0.5,0.4-0.7c0.2-0.2,0.4-0.4,0.7-0.5c0.3-0.1,0.6-0.2,0.9-0.2c0.2,0,0.5,0,0.9,0.1s0.6,0.1,0.8,0.1c0.2,0,0.4,0,0.6-0.1h0.4
				l0.2,2.3h-0.4c-0.4-0.7-0.7-1.2-1.1-1.6s-0.9-0.5-1.4-0.5c-0.3,0-0.5,0.1-0.7,0.2s-0.4,0.3-0.6,0.5c-0.1,0.2-0.2,0.5-0.2,0.7
				c0,0.4,0.1,0.7,0.4,0.9c0.3,0.2,0.6,0.3,1.1,0.4s0.9,0.2,1.3,0.3c0.4,0.1,0.7,0.2,0.9,0.3c0.4,0.2,0.8,0.5,1,0.9s0.4,0.8,0.4,1.3
				c0,0.4-0.1,0.9-0.3,1.3c-0.2,0.4-0.5,0.7-0.9,0.9c-0.4,0.2-0.8,0.3-1.3,0.3c-0.3,0-0.5,0-0.6-0.1c-0.1,0-0.4-0.1-0.7-0.2
				c-0.3-0.1-0.6-0.2-0.8-0.2c-0.3,0-0.5,0.1-0.7,0.3h-0.3L1092.9,506.5L1092.9,506.5z M1093.1,503c-0.1,0.3-0.1,0.5-0.1,0.7
				s0,0.4,0.1,0.6s0.2,0.4,0.3,0.6c0.1,0.2,0.3,0.3,0.4,0.4c0.2,0.1,0.5,0.3,0.7,0.3c0.3,0.1,0.7,0.1,1.2,0.2s0.9,0.2,1.1,0.2
				c0.4,0.1,0.6,0.3,0.8,0.6c0.2,0.3,0.3,0.6,0.3,0.9s-0.1,0.6-0.2,0.8c0.3-0.3,0.5-0.7,0.5-1.1s-0.1-0.8-0.3-1
				c-0.2-0.3-0.5-0.4-0.8-0.6c-0.3-0.1-0.8-0.2-1.4-0.3c-0.6-0.1-0.9-0.2-0.9-0.2c-0.5-0.1-0.9-0.4-1.2-0.7
				c-0.3-0.3-0.4-0.7-0.4-1.2C1093.2,503.1,1093.2,503,1093.1,503C1093.1,503.1,1093.1,503,1093.1,503 M1093.1,507.6v1.5
				c0.1-0.1,0.2-0.2,0.3-0.3c0.1,0,0.2-0.1,0.4,0c-0.1-0.1-0.2-0.3-0.3-0.3c-0.1-0.1-0.1-0.2-0.2-0.3S1093.2,507.8,1093.1,507.6
				 M1097.3,502.9l-0.2-1.1c-0.1,0-0.2,0.1-0.4,0.1c-0.1,0-0.3,0-0.4-0.1c0.1,0.1,0.3,0.2,0.4,0.3c0.1,0.1,0.2,0.3,0.4,0.4
				C1097.2,502.8,1097.3,502.9,1097.3,502.9"/>
			<path class="st1" d="M1102.1,506.5h0.4c0.2,0.6,0.5,1.1,0.7,1.5c0.3,0.4,0.6,0.7,0.9,0.9c0.3,0.2,0.7,0.3,1.1,0.3
				c0.5,0,0.9-0.1,1.2-0.4c0.3-0.3,0.5-0.7,0.5-1.1s-0.1-0.8-0.3-1c-0.2-0.2-0.5-0.4-0.8-0.5s-0.7-0.2-1.2-0.3
				c-0.5-0.1-0.9-0.2-1.1-0.2c-0.3-0.1-0.6-0.3-0.8-0.5c-0.2-0.2-0.4-0.4-0.5-0.7c-0.1-0.3-0.2-0.6-0.2-0.9s0.1-0.6,0.2-0.9
				s0.3-0.5,0.4-0.7c0.2-0.2,0.4-0.4,0.7-0.5c0.3-0.1,0.6-0.2,0.9-0.2c0.2,0,0.5,0,0.9,0.1s0.6,0.1,0.8,0.1c0.2,0,0.4,0,0.6-0.1h0.4
				l0.2,2.3h-0.4c-0.4-0.7-0.7-1.2-1.1-1.6s-0.9-0.5-1.4-0.5c-0.3,0-0.5,0.1-0.7,0.2s-0.4,0.3-0.6,0.5c-0.1,0.2-0.2,0.5-0.2,0.7
				c0,0.4,0.1,0.7,0.4,0.9c0.3,0.2,0.6,0.3,1.1,0.4s0.9,0.2,1.3,0.3c0.4,0.1,0.7,0.2,0.9,0.3c0.4,0.2,0.8,0.5,1,0.9s0.4,0.8,0.4,1.3
				c0,0.4-0.1,0.9-0.3,1.3c-0.2,0.4-0.5,0.7-0.9,0.9c-0.4,0.2-0.8,0.3-1.3,0.3c-0.3,0-0.5,0-0.6-0.1c-0.1,0-0.4-0.1-0.7-0.2
				c-0.3-0.1-0.6-0.2-0.8-0.2c-0.3,0-0.5,0.1-0.7,0.3h-0.3L1102.1,506.5L1102.1,506.5z M1102.3,503c-0.1,0.3-0.1,0.5-0.1,0.7
				s0,0.4,0.1,0.6s0.2,0.4,0.3,0.6c0.1,0.2,0.3,0.3,0.4,0.4c0.2,0.1,0.5,0.3,0.7,0.3c0.3,0.1,0.7,0.1,1.2,0.2s0.9,0.2,1.1,0.2
				c0.4,0.1,0.6,0.3,0.8,0.6c0.2,0.3,0.3,0.6,0.3,0.9s-0.1,0.6-0.2,0.8c0.3-0.3,0.5-0.7,0.5-1.1s-0.1-0.8-0.3-1
				c-0.2-0.3-0.5-0.4-0.8-0.6c-0.3-0.1-0.8-0.2-1.4-0.3c-0.6-0.1-0.9-0.2-0.9-0.2c-0.5-0.1-0.9-0.4-1.2-0.7
				c-0.3-0.3-0.4-0.7-0.4-1.2C1102.4,503.1,1102.4,503,1102.3,503C1102.3,503.1,1102.3,503,1102.3,503 M1102.3,507.6v1.5
				c0.1-0.1,0.2-0.2,0.3-0.3c0.1,0,0.2-0.1,0.4,0c-0.1-0.1-0.2-0.3-0.3-0.3c-0.1-0.1-0.1-0.2-0.2-0.3
				C1102.5,508,1102.4,507.8,1102.3,507.6 M1106.5,502.9l-0.2-1.1c-0.1,0-0.2,0.1-0.4,0.1c-0.1,0-0.3,0-0.4-0.1
				c0.1,0.1,0.3,0.2,0.4,0.3c0.1,0.1,0.2,0.3,0.4,0.4C1106.4,502.8,1106.5,502.9,1106.5,502.9"/>
			<path class="st1" d="M1116,508l-0.6-1.6h-2.6l-0.4,1c-0.1,0.2-0.1,0.5-0.1,0.8s0.1,0.5,0.2,0.7c0.2,0.2,0.4,0.3,0.7,0.3v0.3h-2.6
				v-0.3c0.6-0.1,1-0.6,1.4-1.5l1.9-5c-0.1-0.2-0.2-0.3-0.3-0.4c-0.1-0.1-0.3-0.1-0.5-0.1v-0.3l1.3-0.5h0.5l2.6,6.6
				c0.1,0.4,0.3,0.6,0.4,0.8c0.1,0.1,0.4,0.2,0.7,0.3v0.3h-3.3v-0.3c0.3,0,0.5-0.1,0.6-0.1c0.1-0.1,0.2-0.2,0.2-0.3
				C1116.1,508.5,1116.1,508.3,1116,508 M1111.1,509.1h1.1c-0.2-0.2-0.4-0.4-0.4-0.7c0-0.1,0-0.1,0-0.2c-0.1,0.2-0.2,0.3-0.3,0.5
				C1111.4,508.8,1111.3,508.9,1111.1,509.1 M1112.8,506.1h2.4l-1.2-3L1112.8,506.1z M1116.5,507.8l-2-5.1c-0.1-0.3-0.2-0.4-0.3-0.5
				c-0.1-0.1-0.2-0.2-0.4-0.2c-0.1,0-0.2,0-0.3,0c0.2,0.1,0.3,0.2,0.4,0.3c0.1,0.1,0.2,0.3,0.3,0.5l2,5.1c0.1,0.3,0.2,0.5,0.2,0.7
				c0,0.1,0,0.2-0.1,0.2c0,0-0.1,0.1-0.2,0.2h0.1c0.2,0,0.3,0,0.4-0.1s0.1-0.2,0.1-0.3C1116.7,508.4,1116.6,508.2,1116.5,507.8"/>
			<path class="st1" d="M1127,501.8v-0.3h3v0.3c-0.2,0-0.5,0.1-0.7,0.2s-0.3,0.3-0.4,0.5s-0.2,0.4-0.2,0.7l0.1,6.4h-0.3l-5.7-6.7
				l0.1,4.5c0,0.3,0,0.5,0.1,0.7c0,0.2,0.1,0.4,0.2,0.5s0.2,0.3,0.4,0.3c0.2,0.1,0.4,0.1,0.7,0.2v0.3h-3v-0.3c0.4,0,0.7-0.1,0.9-0.3
				c0.2-0.2,0.3-0.4,0.4-0.7c0-0.3,0.1-0.6,0-1l-0.1-4.6c-0.2-0.2-0.4-0.4-0.6-0.5s-0.4-0.2-0.6-0.2h-0.1v-0.3h2.3l5,5.9l-0.1-3.9
				c0-0.3,0-0.6-0.1-0.8c-0.1-0.2-0.2-0.4-0.3-0.5c-0.1-0.1-0.3-0.2-0.4-0.3C1127.4,501.8,1127.2,501.8,1127,501.8 M1128.1,508.2
				l-5-5.9c-0.1-0.1-0.2-0.3-0.4-0.4c-0.1-0.1-0.3-0.2-0.6-0.2h-0.3c0.2,0.1,0.4,0.2,0.5,0.3c0.1,0.1,0.3,0.3,0.5,0.5l5.7,6.7
				c0-0.1,0-0.2,0-0.3c0-0.1,0-0.2,0-0.2c0-0.1-0.1-0.1-0.1-0.2C1128.3,508.5,1128.2,508.4,1128.1,508.2 M1122,509.1h1.2
				c-0.2-0.1-0.3-0.2-0.3-0.4c-0.1-0.1-0.1-0.3-0.2-0.5c0,0.2-0.1,0.3-0.2,0.5C1122.3,508.9,1122.2,509,1122,509.1 M1129,501.8h-1.2
				c0.2,0.1,0.3,0.2,0.5,0.3c0.1,0.1,0.2,0.3,0.3,0.5C1128.6,502.2,1128.7,502,1129,501.8"/>
			<path class="st1" d="M1139.8,501.4h0.5v2.5h-0.3c-0.2-0.4-0.4-0.7-0.6-1s-0.4-0.5-0.6-0.7s-0.5-0.3-0.7-0.4s-0.5-0.1-0.8-0.1
				c-0.4,0-0.7,0.1-1.1,0.3c-0.3,0.2-0.6,0.4-0.8,0.7c-0.2,0.3-0.4,0.7-0.5,1.2s-0.2,1-0.2,1.5c0,0.7,0.1,1.4,0.4,2
				c0.2,0.6,0.6,1,1,1.3s0.9,0.5,1.5,0.5c0.3,0,0.7-0.1,1-0.2s0.6-0.3,0.9-0.5s0.6-0.5,0.8-0.9l0.3,0.2c-0.4,0.6-0.9,1.1-1.5,1.4
				s-1.3,0.5-2,0.5c-0.6,0-1.1-0.1-1.6-0.3c-0.5-0.2-0.9-0.5-1.3-0.9s-0.6-0.8-0.8-1.3c-0.2-0.5-0.3-1-0.3-1.6s0.1-1.2,0.3-1.7
				c0.2-0.5,0.5-1,0.9-1.3c0.4-0.4,0.8-0.7,1.3-0.9c0.5-0.2,1-0.3,1.6-0.3c0.2,0,0.4,0,0.6,0s0.4,0.1,0.6,0.1
				c0.3,0.1,0.4,0.1,0.5,0.1s0.2,0,0.3,0C1139.4,501.7,1139.6,501.6,1139.8,501.4 M1135.9,501.6c-0.6,0.2-1.1,0.5-1.4,0.8
				c-0.2,0.2-0.4,0.4-0.6,0.6s-0.3,0.5-0.4,0.7c-0.1,0.3-0.2,0.5-0.3,0.8c-0.1,0.3-0.1,0.6-0.1,0.9c0,0.7,0.1,1.3,0.4,1.9
				s0.7,1,1.2,1.4s1.2,0.6,2,0.7c-0.5-0.1-0.9-0.3-1.4-0.6c-0.4-0.3-0.8-0.6-1-0.9c-0.3-0.4-0.5-0.7-0.6-1.2
				c-0.1-0.4-0.2-0.8-0.2-1.3c0-0.4,0.1-0.8,0.2-1.2c0.1-0.4,0.3-0.8,0.5-1.1c0.3-0.4,0.5-0.7,0.8-0.9
				C1135.3,502.1,1135.6,501.9,1135.9,501.6 M1139.6,502.8v-0.9c-0.2,0.1-0.4,0.1-0.6,0.1c-0.1,0-0.2,0-0.3,0
				c0.2,0.1,0.3,0.3,0.5,0.4C1139.4,502.5,1139.5,502.7,1139.6,502.8"/>
			<path class="st1" d="M1146,505.5v2.5c0,0.3,0,0.5,0.1,0.6c0,0.2,0.1,0.3,0.2,0.3c0.1,0.1,0.3,0.1,0.5,0.1s0.5,0,0.8,0
				c0.4,0,0.8-0.1,1.1-0.2c0.3-0.1,0.6-0.3,0.9-0.6c0.3-0.2,0.6-0.6,0.9-1h0.4l-0.7,2h-6.9v-0.3c0.3,0,0.6,0,0.8-0.1
				c0.2-0.1,0.3-0.1,0.4-0.3c0.1-0.1,0.1-0.3,0.1-0.5v-5.5c0-0.3,0-0.5-0.1-0.6s-0.2-0.2-0.3-0.2c-0.2,0-0.4-0.1-0.8-0.1v-0.3h6.6
				l0.7,1.8h-0.4c-0.2-0.3-0.5-0.5-0.8-0.7s-0.7-0.4-1-0.5c-0.4-0.1-0.8-0.2-1.2-0.2c-0.3,0-0.6,0-0.8,0.1c-0.2,0.1-0.3,0.2-0.3,0.3
				c-0.1,0.1-0.1,0.3-0.1,0.5v2.4h1.1c1,0,1.5-0.4,1.5-1.3h0.4v3h-0.3c0-0.5-0.2-0.8-0.4-1c-0.2-0.2-0.5-0.3-1-0.3h-1.4L1146,505.5
				L1146,505.5z M1144.8,502.8v5.4c0,0.3,0,0.5-0.1,0.6s-0.2,0.2-0.3,0.3c0.3,0,0.5-0.1,0.6-0.2c0.1-0.2,0.1-0.4,0.1-0.8v-5.4
				c0-0.3-0.1-0.5-0.2-0.6s-0.3-0.2-0.6-0.2c0.1,0.1,0.2,0.2,0.3,0.3C1144.8,502.3,1144.8,502.5,1144.8,502.8 M1148.6,505.8v-1.1
				c-0.1,0.2-0.4,0.4-0.8,0.5c0.2,0.1,0.4,0.1,0.5,0.2C1148.4,505.6,1148.5,505.7,1148.6,505.8 M1149.5,501.8h-1
				c0.3,0.1,0.5,0.2,0.7,0.3c0.2,0.1,0.4,0.3,0.7,0.5L1149.5,501.8z M1149.7,509.1l0.4-1c-0.2,0.2-0.4,0.4-0.6,0.5s-0.4,0.3-0.8,0.4
				h1V509.1z"/>
			<path class="st2" d="M1050.2,503.8c0-0.2,0-0.4,0-0.7c0-0.5,0.2-0.8,0.6-0.9c0.3-0.2,0.8-0.2,1.5-0.2v-0.6H1020v0.6
				c0.5,0,0.9,0.1,1.2,0.1c0.2,0,0.4,0.1,0.6,0.2c0.1,0.1,0.2,0.3,0.3,0.6c0.1,0.3,0.1,0.7,0.1,1.2v13.5c0,0.6,0,1-0.1,1.2
				c-0.1,0.3-0.3,0.4-0.6,0.6c-0.3,0.1-0.8,0.2-1.4,0.2v0.6h32.2v-0.6c-0.5,0-0.9-0.1-1.1-0.1s-0.4-0.1-0.5-0.2
				c-0.2-0.1-0.3-0.3-0.4-0.5s-0.1-0.6-0.1-0.9V504C1050.1,504,1050.1,503.9,1050.2,503.8 M1047.2,519.2c0,0-0.6,0.4-1.5,0.4l0,0
				c-0.3,0-0.5,0-0.7-0.1c-0.5-0.1-0.8-0.3-0.8-0.3l0,0c-0.1-0.1-0.2-0.2-0.3-0.4c0-0.1-0.1-0.2-0.1-0.3c0-0.2-0.1-0.4-0.1-0.7V504
				c0,0,0,0,0-0.1v-0.1c0,0,0,0,0-0.1v-0.1c0-0.2,0-0.3,0-0.6c0-0.2,0-0.3,0.1-0.4s0.1-0.2,0.2-0.3l0,0c0,0,0.6-0.4,1.6-0.4
				c0.1,0,0.1,0,0.2,0c0.2,0,0.3,0,0.4,0c0.5,0.1,0.9,0.3,0.9,0.3c0.1,0.1,0.2,0.3,0.2,0.5c0,0.3,0.1,0.7,0.1,1.2v13.5
				c0,0.6,0,1-0.1,1.2C1047.4,519,1047.3,519.1,1047.2,519.2 M1042.2,503.3v15.2c0,0.4-0.1,0.7-0.4,0.9c-0.2,0.1-0.6,0.2-0.9,0.2
				h-0.1c0,0,0,0,0.1,0c0.3-0.1,0.4-0.3,0.6-0.4c0.1-0.2,0.2-0.4,0.2-0.8v-14.6v-0.1l0,0c0,0,0,0,0-0.1l0,0c0,0,0,0,0-0.1
				c0-0.8-0.3-1.3-0.8-1.5c0.1,0,0.1,0,0.2,0h0.1c0.3,0,0.5,0.1,0.7,0.2l0.1,0.1c0.1,0.1,0.1,0.2,0.2,0.3
				C1042.2,502.8,1042.2,503,1042.2,503.3 M1037.4,517.8V504c0,0,0,0,0-0.1v-0.1c0,0,0,0,0-0.1v-0.1c0-0.2,0-0.3,0-0.6
				c0-0.2,0-0.3,0.1-0.4c0-0.1,0.1-0.2,0.2-0.3l0,0c0,0,0.6-0.4,1.6-0.4c0.1,0,0.1,0,0.2,0c0.2,0,0.3,0,0.4,0
				c0.5,0.1,0.9,0.3,0.9,0.3c0.1,0.1,0.2,0.3,0.2,0.5c0.1,0.3,0.1,0.7,0.1,1.2v13.5c0,0.5,0,0.9-0.1,1.1v0.1c0,0.1-0.1,0.3-0.2,0.4
				c0,0-0.6,0.4-1.5,0.4l0,0c-0.3,0-0.5,0-0.7-0.1c-0.5-0.1-0.8-0.3-0.8-0.3l0,0c-0.1-0.1-0.2-0.2-0.3-0.4c0-0.1-0.1-0.2-0.1-0.3
				C1037.4,518.3,1037.4,518.1,1037.4,517.8 M1035.8,503.3v15.2c0,0.4-0.1,0.7-0.4,0.9c-0.2,0.1-0.6,0.2-0.9,0.2h-0.1c0,0,0,0,0.1,0
				c0.3-0.1,0.5-0.3,0.6-0.4c0.1-0.2,0.2-0.4,0.2-0.8v-14.6v-0.1l0,0c0,0,0,0,0-0.1l0,0c0,0,0,0,0-0.1c0-0.8-0.3-1.3-0.8-1.5
				c0.1,0,0.1,0,0.2,0h0.1c0.3,0,0.5,0.1,0.7,0.2l0.1,0.1c0.1,0.1,0.1,0.2,0.2,0.3C1035.8,502.8,1035.8,503,1035.8,503.3
				 M1031,517.8V504c0,0,0,0,0-0.1v-0.1c0,0,0,0,0-0.1v-0.1c0-0.2,0-0.3,0-0.6c0-0.2,0-0.3,0.1-0.4c0-0.1,0.1-0.2,0.2-0.3l0,0
				c0,0,0.6-0.4,1.6-0.4c0.1,0,0.1,0,0.2,0c0.2,0,0.3,0,0.4,0c0.5,0.1,0.9,0.3,0.9,0.3c0.1,0.1,0.2,0.3,0.2,0.5
				c0.1,0.3,0.1,0.7,0.1,1.2v13.5c0,0.5,0,0.9-0.1,1.1v0.1c0,0.1-0.1,0.3-0.2,0.4c0,0-0.6,0.4-1.5,0.4l0,0c-0.3,0-0.5,0-0.7-0.1
				c-0.5-0.1-0.8-0.3-0.8-0.3l0,0c-0.1-0.1-0.2-0.2-0.3-0.4c0-0.1-0.1-0.2-0.1-0.3C1031.1,518.3,1031,518.1,1031,517.8
				 M1029.5,503.3v15.2c0,0.4-0.1,0.7-0.4,0.9c-0.2,0.1-0.6,0.2-0.9,0.2h-0.1c0,0,0,0,0.1,0c0.3-0.1,0.5-0.3,0.6-0.4
				c0.1-0.2,0.2-0.4,0.2-0.8v-14.6v-0.1l0,0c0,0,0,0,0-0.1l0,0c0,0,0,0,0-0.1c0-0.8-0.3-1.3-0.8-1.5c0.1,0,0.1,0,0.2,0h0.1
				c0.3,0,0.5,0.1,0.7,0.2l0.1,0.1c0.1,0.1,0.1,0.2,0.2,0.3C1029.4,502.8,1029.5,503,1029.5,503.3 M1023.1,518.5
				c0,0.4-0.1,0.7-0.4,0.9c-0.3,0.1-0.6,0.2-1.1,0.2c0.3-0.2,0.5-0.3,0.6-0.5s0.2-0.4,0.2-0.8v-14.6c0-0.1,0-0.1,0-0.2
				c0,0,0-0.1,0-0.2c0-0.8-0.3-1.3-0.8-1.5c0.6,0,0.9,0.1,1.1,0.3c0.2,0.2,0.3,0.6,0.3,1v15.4H1023.1z M1024.7,517.8V504
				c0,0,0-0.1,0-0.2c0-0.2,0-0.4,0-0.7c0-0.3,0.1-0.6,0.3-0.7l0,0c0,0,0.6-0.4,1.6-0.4c0.1,0,0.1,0,0.2,0c0.2,0,0.3,0,0.4,0
				c0.5,0.1,0.9,0.3,0.9,0.3c0.1,0.1,0.2,0.3,0.2,0.5c0.1,0.3,0.1,0.7,0.1,1.2v13.5c0,0.5,0,0.9-0.1,1.1v0.1c0,0.1-0.1,0.3-0.2,0.4
				c0,0-0.6,0.4-1.5,0.4l0,0c-0.3,0-0.5,0-0.7-0.1c-0.5-0.1-0.8-0.3-0.8-0.3l0,0c-0.1-0.1-0.2-0.2-0.3-0.4
				C1024.7,518.5,1024.7,518.2,1024.7,517.8 M1048.6,518.5c0,0.4-0.1,0.7-0.4,0.9c-0.3,0.1-0.6,0.2-1.1,0.2c0.3-0.2,0.5-0.3,0.6-0.5
				s0.2-0.4,0.2-0.8v-14.6c0-0.1,0-0.1,0-0.2c0,0,0-0.1,0-0.2c0-0.8-0.3-1.3-0.8-1.5c0.6,0,0.9,0.1,1.1,0.3c0.2,0.2,0.3,0.6,0.3,1
				v15.4H1048.6z"/>
		</g>
		<path class="st1" d="M1062.7,518.1c0,0.4,0,0.7,0.2,0.9c0.1,0.2,0.3,0.2,1,0.2c0.8,0,1.1,0,1.6-1.1c0.1-0.1,0.3-0.1,0.3,0.1
			c0,0.5-0.3,1.2-0.4,1.5c-0.5,0-1.4,0-2.1,0h-1.2c-0.4,0-0.9,0-1.4,0c-0.1-0.1-0.1-0.3,0-0.3h0.3c0.4-0.1,0.5-0.1,0.5-1V515
			c0-0.9-0.1-0.9-0.5-1h-0.3c-0.1-0.1-0.1-0.3,0-0.3c0.5,0,0.9,0,1.4,0c0.4,0,0.9,0,1.4,0c0.1,0.1,0.1,0.3,0,0.3h-0.2
			c-0.4,0.1-0.5,0.1-0.5,1v3.1H1062.7z"/>
		<path class="st1" d="M1074.8,516.6c0,2-1.3,3.2-3.3,3.2c-1.8,0-3.2-1.2-3.2-3.1c0-1.8,1.4-3.2,3.3-3.2
			C1073.5,513.5,1074.8,514.7,1074.8,516.6z M1071.6,513.9c-1.1,0-1.7,1.1-1.7,2.6c0,1.1,0.4,2.9,1.9,2.9c1.2,0,1.7-1.2,1.7-2.7
			C1073.4,515.2,1072.7,513.9,1071.6,513.9z"/>
		<path class="st1" d="M1083.6,518.6c0,0.4,0,0.6,0.2,0.6v0.2c-0.2,0-0.4,0.1-0.6,0.1c-0.3,0.1-1.1,0.2-1.6,0.2
			c-0.6,0-1.2-0.1-1.8-0.3c-1.1-0.4-1.8-1.4-1.8-2.8c0-1.1,0.5-2.2,1.6-2.8c0.6-0.3,1.4-0.5,2.1-0.5c1,0,1.5,0.2,1.8,0.2
			c0,0.3,0,0.9,0.1,1.5c0,0.1-0.3,0.1-0.3,0c-0.3-0.9-0.9-1.3-1.7-1.3c-1.5,0-2.2,1.2-2.2,2.7c0,1.3,0.4,2.1,1,2.5
			c0.4,0.3,0.9,0.3,1.3,0.3c0.5,0,0.6-0.1,0.6-0.7v-0.6c0-0.5-0.1-0.5-0.5-0.6l-0.4-0.1c-0.1-0.1-0.1-0.3,0-0.3c0.7,0,1.1,0,1.5,0
			s0.9,0,1.2,0c0.1,0.1,0.1,0.3,0,0.3h-0.2c-0.3,0.1-0.3,0.1-0.3,0.6L1083.6,518.6L1083.6,518.6z"/>
		<path class="st1" d="M1088.9,516c0,0.3,0,0.3,0.3,0.3h0.6c0.5,0,0.6-0.1,0.7-0.5v-0.2c0.1-0.1,0.3-0.1,0.3,0c0,0.3,0,0.6,0,1
			s0,0.7,0,1c0,0.1-0.3,0.1-0.3,0v-0.2c-0.1-0.4-0.2-0.5-0.7-0.5h-0.6c-0.2,0-0.3,0-0.3,0.3v1.1c0,0.4,0,0.7,0.1,0.9s0.3,0.2,1,0.2
			c0.8,0,1.1,0,1.6-1.1c0.1-0.1,0.3-0.1,0.3,0c0,0.5-0.3,1.2-0.4,1.5c-0.5,0-1.4,0-2.1,0h-1.2c-0.4,0-0.9,0-1.6,0
			c-0.1-0.1-0.1-0.3,0-0.3l0.4-0.1c0.4-0.1,0.5-0.1,0.5-1V515c0-0.8-0.1-0.9-0.5-1h-0.2c-0.1-0.1-0.1-0.3,0-0.3c0.4,0,0.9,0,1.3,0
			h1.9c0.6,0,1.1,0,1.2,0c0,0.1,0.1,0.8,0.1,1.4c0,0.1-0.2,0.1-0.3,0c-0.1-0.3-0.2-0.6-0.3-0.7c-0.2-0.2-0.4-0.3-0.9-0.3h-0.7
			c-0.3,0-0.3,0-0.3,0.4L1088.9,516L1088.9,516z"/>
		<path class="st1" d="M1095.3,515.1c0-0.9,0-1-0.4-1.1h-0.2c-0.1,0-0.1-0.3,0-0.3c0.7,0,1.4-0.1,2.3-0.1c0.8,0,1.4,0.1,1.8,0.3
			c0.5,0.3,0.8,0.8,0.8,1.4c0,0.8-0.6,1.2-1,1.4c-0.1,0-0.1,0.1,0,0.2c0.6,1.2,1,1.9,1.4,2.3c0.2,0.2,0.5,0.2,0.6,0.3
			c0.1,0,0.1,0.2,0,0.2c-0.1,0.1-0.4,0.1-0.7,0.1c-0.8,0-1.4-0.3-1.8-1c-0.3-0.5-0.5-0.9-0.7-1.4c-0.1-0.2-0.3-0.3-0.5-0.3
			c-0.3,0-0.3,0-0.3,0.2v1.1c0,0.8,0.1,0.9,0.5,1h0.2c0.1,0,0.1,0.3,0,0.3c-0.5,0-0.9,0-1.3,0c-0.5,0-0.9,0-1.3,0
			c-0.1-0.1-0.1-0.3,0-0.3h0.2c0.4-0.1,0.5-0.1,0.5-1L1095.3,515.1L1095.3,515.1z M1096.5,516.3c0,0.3,0,0.3,0.6,0.3
			c0.3,0,0.5-0.1,0.7-0.3s0.3-0.4,0.3-1c0-0.8-0.5-1.4-1.2-1.4c-0.4,0-0.4,0-0.4,0.5V516.3z"/>
	</g>
</g>
<g class="st3">
	<path d="M9.2,47.3C9,47.5,9,47.5,8.8,47.9c-0.9,2.3-1.7,3.6-2.8,4.7c-0.7,0.6-2.1,1.7-3.6,2l0-0.1c1.6-0.8,3.1-2.4,3.8-3.3
		c0.6-0.8,1.5-2.4,2-4.4c-2.7,0.2-5,0.6-5.5,0.8c-0.1,0-0.5,0.3-0.6,0.3c-0.1,0-1-0.6-1-1.5c0-0.2,0.1-0.4,0.1-0.5
		c0.3,0.5,0.7,0.9,1.3,0.9c0.2,0,4.9-0.4,5.5-0.6c0.1,0,0.5-0.3,0.5-0.3c0.1,0,1.1,0.9,1.1,1.1C9.6,47.1,9.5,47.2,9.2,47.3z
		 M10.4,46.5c-0.7,0-1.2-0.5-1.2-1.2c0-0.7,0.5-1.2,1.2-1.2s1.2,0.5,1.2,1.2C11.6,45.9,11.1,46.5,10.4,46.5z M10.4,44.5
		c-0.4,0-0.7,0.3-0.7,0.7c0,0.4,0.3,0.8,0.7,0.8s0.8-0.3,0.8-0.8C11.2,44.8,10.8,44.5,10.4,44.5z"/>
	<path d="M17.1,53.5c-0.3,0.2-0.3,0.2-0.6,0.5c-0.1,0.1-0.2,0.1-0.2,0.1c-0.3,0-0.9-1.1-0.9-1.2c0-0.1,0.2-0.5,0.2-0.6
		c0.1-0.4,0.1-2.7,0.1-3.3c0-0.5,0-2.9-0.1-3.2c-0.1-0.2-0.3-0.3-1.1-0.5c0.4-0.2,0.6-0.4,0.9-0.4c0.4,0,1.5,0.4,1.5,0.7
		c0,0.1-0.2,0.6-0.2,0.7c-0.1,0.6-0.2,5-0.2,6.2c1.6-0.5,4.6-2.4,6.8-4.7l0.1,0.1C21.6,50.9,19.8,51.9,17.1,53.5z"/>
	<path d="M36.9,48.4c-0.1,0-1.3-0.2-1.6-0.2c-0.7-0.1-1.2-0.1-1.5-0.1c0,2.8-0.1,5.1-3,6.9l-0.1-0.1c2.1-2.2,2.2-4.1,2.2-6.8
		c-0.3,0-1.4,0.1-2.7,0.3c0,0.4,0.1,2.2,0.1,2.5c0,0.4,0,0.8-0.4,0.8c-0.4,0-0.5-0.7-0.5-0.9c0-0.1,0.1-0.7,0.1-0.9
		c0-0.2,0-1.2,0-1.4c-0.5,0.1-1.4,0.3-1.8,0.5c-0.3,0.1-0.3,0.1-0.4,0.1c-0.5,0-1-0.8-1-1.3c0-0.2,0-0.4,0.1-0.5
		c0.5,0.7,0.6,0.8,1.1,0.8c0.2,0,1.6-0.2,1.9-0.2c0-0.4,0-1.9-0.2-2.2c-0.1-0.2-0.4-0.3-0.9-0.5c0.3-0.2,0.5-0.3,0.8-0.3
		c0.3,0,1.2,0.3,1.2,0.7c0,0.1-0.1,0.4-0.1,0.5c-0.1,0.4-0.1,0.9-0.1,1.8c0.9-0.1,2-0.2,2.7-0.3c0-1.9,0-2.1-0.1-2.4
		c-0.1-0.4-0.8-0.5-1.1-0.5c0.3-0.2,0.5-0.3,0.8-0.3c0.4,0,1.4,0.3,1.4,0.7c0,0.1-0.1,0.5-0.1,0.6c-0.1,0.5-0.1,1.3-0.1,1.9
		c0.5,0,1.3-0.1,1.6-0.1c0.1,0,0.5-0.2,0.5-0.2c0.2,0,0.7,0.2,1.1,0.4c0.1,0.1,0.2,0.2,0.2,0.4C37.3,48.4,37,48.4,36.9,48.4z"/>
	<path d="M43.9,47.4c-0.2,0-0.4-0.2-0.8-0.6c-0.9-0.9-1.6-1.3-2.1-1.5c1.6-0.1,3.4,0.5,3.4,1.5C44.4,47.2,44.1,47.4,43.9,47.4z
		 M45,51.9c-0.3,0.2-1.5,1.1-1.7,1.3c-0.1,0.1-0.4,0.4-0.4,0.5c-0.1,0.1-0.2,0.1-0.2,0.1c-0.5,0-1.3-1.1-1.3-1.7
		c0-0.2,0.1-0.4,0.1-0.6c0.3,0.6,0.7,0.9,0.9,0.9c0.4,0,2.4-1.5,3-1.9c2.1-1.6,3.1-2.7,4.1-3.9l0.1,0C49.3,47.4,47.9,49.7,45,51.9z"
		/>
	<path d="M61.2,53.9c-0.3,0-0.4-0.2-0.5-0.4c-1-1.7-1.8-2.6-2.9-3.4c-2.3,2.9-4.5,3.7-5.7,4l0-0.1c3-1.3,6.2-5.3,6.9-7.7
		c-0.5,0.1-2.7,0.5-3.4,0.7c-0.1,0.1-0.6,0.3-0.7,0.3c-0.2,0-0.9-0.6-0.9-1.3c0-0.3,0.1-0.4,0.1-0.6c0.5,0.8,0.7,0.8,1,0.8
		c0.4,0,3.2-0.3,3.7-0.6c0.1-0.1,0.5-0.4,0.6-0.4c0.1,0,1.1,0.8,1.1,1c0,0.1-0.1,0.2-0.5,0.3c-0.1,0-0.1,0.1-0.3,0.4
		c-0.6,1.1-0.9,1.7-1.7,2.9c1.6,0.7,3.7,2.2,3.7,3.5C61.7,53.6,61.6,53.9,61.2,53.9z"/>
	<path d="M80.7,47.1c-0.3,0.2-0.3,0.2-0.5,1.2c-0.2,1-0.4,2.4-0.6,3.1c0,0,0,0.1,0,0.1c0,0.1,0,0.1,0.2,0.3c0.3,0.2,0.4,0.3,0.4,0.5
		c0,0.3-0.3,0.3-0.4,0.3c-0.1,0-0.2,0-0.2,0c-0.6-0.1-0.9-0.1-2.3-0.1c-1.6,0-2.5,0.1-3,0.1c0,0.2,0,0.7-0.4,0.7
		c-0.5,0-0.7-0.9-0.7-1.3c0-0.1,0.1-0.5,0.1-0.6c0-0.3-0.1-3.6-0.4-4.6c-0.1-0.5-0.4-0.6-0.9-0.8c0.2-0.1,0.4-0.2,0.7-0.2
		c0.3,0,0.5,0.1,1.2,0.5c0.2,0.1,0.3,0.1,0.4,0.1c0.1,0,0.8-0.1,0.9-0.1c0.6,0,3.3-0.2,3.8-0.3c0.4-0.1,0.5-0.1,0.7-0.3
		c0.1-0.1,0.1-0.1,0.2-0.1c0.2,0,1.1,0.8,1.1,1.1C81,46.9,80.9,47,80.7,47.1z M79.1,46.8c-0.4,0-2,0.1-3.6,0.2
		c-0.1,0-0.8,0.1-0.9,0.1c-0.1,0-0.5-0.2-0.6-0.2c0,0-0.1,0-0.1,0.1c0,0.2,0.3,4.9,0.3,4.9c0.4,0,4-0.2,4.6-0.2
		c0.1-0.4,0.5-4,0.5-4.7C79.3,46.9,79.3,46.8,79.1,46.8z"/>
	<path d="M87.8,49.5c-0.1,0-0.2-0.1-1.1-0.6c-0.7-0.4-1.3-0.7-2-1c0.3,0,0.5-0.1,1-0.1c0.1,0,1.2,0,1.8,0.3c0.6,0.3,0.7,0.8,0.7,0.9
		C88.2,49.3,88,49.5,87.8,49.5z M88.2,53.7c-0.2,0.1-0.2,0.2-0.5,0.4c-0.1,0.1-0.2,0.2-0.4,0.2c-0.4,0-1.2-0.9-1.2-1.7
		c0-0.1,0-0.2,0-0.3c0.1,0.1,0.6,0.8,1,0.8c0.2,0,0.3-0.1,0.5-0.1c2.1-1.2,4.4-3.1,6.7-5.8l0.1,0.1C92.8,50.1,90.9,51.9,88.2,53.7z
		 M89,46.6c-0.2,0-0.2-0.1-0.9-0.6c-0.8-0.7-1.5-1-2-1.2c0.2,0,0.4-0.1,0.6-0.1c0.1,0,2.6,0,2.6,1.4C89.3,46.6,89,46.6,89,46.6z
		 M93.6,46.7c-0.2,0-0.2,0-0.7-0.5c-0.4-0.4-0.8-0.8-1.3-1.1c0.8,0,2.3,0.4,2.3,1.2C93.9,46.6,93.7,46.7,93.6,46.7z M94.7,45.5
		c-0.1,0-0.2-0.1-0.6-0.5c-0.4-0.4-0.9-0.7-1.4-1c0.2,0,0.3,0,0.4,0c0.5,0,2,0.2,2,1.1C95,45.4,94.8,45.5,94.7,45.5z"/>
	<path d="M106.1,53.5c-0.1,0-0.7-0.2-0.7-0.2c-0.8-0.2-1.7-0.2-2.3-0.2c-0.4,0-3.7,0-4.4,0.6c-0.1,0-0.1,0.1-0.2,0.1
		c-0.3,0-0.9-0.6-0.9-1.2c0-0.2,0-0.3,0.1-0.4c0.3,0.4,0.6,0.7,1.1,0.7c0.3,0,2.3-0.2,2.8-0.2c0-0.4,0.1-1.3,0.1-2
		c0-1-0.1-1.1-0.3-1.4c-0.6,0.1-0.9,0.1-1,0.1c-0.1,0-0.4,0.1-0.4,0.1c-0.3,0-0.9-0.6-0.9-1c0.5,0.3,0.8,0.4,1.3,0.4
		c1.3,0,2.8-0.2,2.9-0.2c0.1,0,0.5-0.2,0.6-0.2c0.1,0,0.8,0.1,0.8,0.5c0,0.2-0.3,0.3-0.4,0.3c-0.9,0-1,0-2,0.1
		c0.1,0.1,0.2,0.2,0.2,0.3c0,0.1-0.1,0.3-0.1,0.4c0,0.1-0.2,2.3-0.2,2.8c0.4,0,2.3-0.1,2.7-0.1c0.1,0,0.4-0.1,0.4-0.1
		c0.1,0,1.1,0.4,1.1,0.8C106.4,53.3,106.3,53.5,106.1,53.5z"/>
	<path d="M118,50.9c-0.2,0-0.9,0-1.5,0.1l-0.3-0.5c0.9,0.1,1.8,0.1,2,0.1h0.5c0-0.8,0-1.3-0.1-1.9l1.2,0.3c0.1,0,0.2,0.1,0.2,0.2
		c0,0.1-0.1,0.2-0.4,0.4c0,0.3,0,0.5-0.1,1h1.1l0.4-0.5c0.1-0.1,0.2-0.2,0.2-0.2c0.1,0,0.2,0.1,0.2,0.1l0.6,0.5
		c0.1,0.1,0.1,0.1,0.1,0.2c0,0.1-0.1,0.1-0.2,0.1h-2.5c0,0.1,0,0.2,0,0.6c0.7,0.1,1.8,0.4,1.8,1.2c0,0.4-0.3,0.5-0.5,0.5
		c-0.3,0-0.4-0.3-0.5-0.5c-0.1-0.3-0.3-0.8-0.8-1.1c0,0.5,0.1,2.7,0.1,3.1c0,0.4-0.2,0.6-0.6,0.6c-0.3,0-0.4-0.1-0.4-0.4
		c0-0.2,0.2-2.2,0.2-2.6c0-0.1,0-0.6,0-0.7c-0.5,0.8-1.6,2-3,2.6l-0.1-0.1c1.3-1.2,2.2-2.6,2.6-3.3H118z M120.9,48.4l0.4-0.5
		c0.1-0.1,0.1-0.2,0.2-0.2c0.1,0,0.2,0.1,0.2,0.1l0.5,0.5c0.1,0.1,0.1,0.1,0.1,0.2c0,0.1-0.1,0.1-0.2,0.1h-4.3c-0.2,0-0.9,0-1.5,0.1
		l-0.2-0.5c0.9,0.1,1.8,0.1,2,0.1h1.4c0.1-0.3,0.8-1.7,0.7-2.7l1.2,0.7c0.1,0.1,0.1,0.1,0.1,0.2c0,0.2-0.3,0.2-0.5,0.2
		c-0.1,0.2-0.8,1-1.3,1.6H120.9z M120.6,45.3l0.5-0.5c0.1-0.1,0.2-0.2,0.2-0.2c0.1,0,0.2,0.1,0.2,0.1l0.6,0.5
		c0.1,0.1,0.1,0.1,0.1,0.2c0,0.1-0.1,0.1-0.2,0.1h-3.7c-0.2,0-0.9,0-1.5,0.1l-0.2-0.5c0.7,0.1,1.3,0.1,2,0.1h0.4
		c0-0.6,0-1.2-0.2-1.8l1.3,0.4c0.1,0,0.2,0.1,0.2,0.2c0,0.1-0.2,0.3-0.4,0.4c0,0.1,0,0.7,0,0.8H120.6z M117.5,45.9
		c0.5,0.3,1.4,0.8,1.4,1.6c0,0.4-0.2,0.6-0.5,0.6c-0.4,0-0.5-0.2-0.6-0.7C117.9,46.9,117.8,46.6,117.5,45.9L117.5,45.9z M127,44.4
		c0.1,0.1,0.1,0.1,0.1,0.2s-0.1,0.2-0.2,0.2c-0.1,0-0.2,0-0.5-0.1c-0.8,0.2-2.4,0.4-2.8,0.4c0,0.8,0,2.1,0,3h2.7l0.5-0.6
		c0.1-0.1,0.1-0.2,0.2-0.2c0,0,0.2,0.1,0.2,0.1l0.7,0.6c0.1,0.1,0.1,0.1,0.1,0.2c0,0.1-0.1,0.1-0.2,0.1h-2c0,0.8,0.1,4.2,0.1,4.3
		c0,0.4,0.1,1.9,0.1,2.2c0,0.4-0.4,0.6-0.7,0.6c-0.3,0-0.4-0.2-0.4-0.3c0-0.1,0-0.2,0-0.4c0.1-1,0.1-3,0.1-5.1c0-0.4,0-0.9,0-1.3
		h-1.4c0,3-0.5,5.3-3,6.8l-0.1-0.1c1.6-1.7,2.2-3.1,2.2-7.8c0-0.8,0-2.4-0.2-3.1l1.2,0.6c0.4-0.1,1.8-0.5,2.4-1.2L127,44.4z"/>
	<path d="M135.4,46.7h-1.6c0,0.6,0,0.6,0,1.1c0.9,0.3,1.5,0.8,1.5,1.4c0,0.2-0.1,0.5-0.4,0.5c-0.4,0-0.5-0.3-0.6-0.7
		c-0.2-0.7-0.3-0.8-0.5-1c0,2.1,0,4.2,0,6.4c0,0.1,0,0.4,0,0.5c0,0.4-0.2,0.6-0.6,0.6c-0.3,0-0.4-0.1-0.4-0.4c0-0.7,0.1-3.7,0.1-4.2
		v-1.4c-0.3,0.6-1.1,2.4-2.2,3.2l-0.1-0.1c1-1.5,2-4.1,2.3-5.8c-0.3,0-0.9,0-1.6,0.1l-0.3-0.5c0.7,0.1,1.1,0.1,1.8,0.1
		c0-1.8,0-2-0.3-2.9l1.3,0.4c0.2,0.1,0.2,0.1,0.2,0.2c0,0.1-0.2,0.3-0.4,0.4c0,0.1,0,1.4,0,1.9h0.4l0.3-0.4c0.1-0.1,0.1-0.2,0.2-0.2
		c0.1,0,0.1,0,0.2,0.1l0.5,0.4c0.1,0.1,0.1,0.1,0.1,0.2C135.6,46.7,135.5,46.7,135.4,46.7z M142.8,50.6H141c0,0.9-0.1,1.8-0.2,2.6
		h0.5l0.4-0.5c0.1-0.1,0.1-0.2,0.2-0.2c0.1,0,0.1,0,0.2,0.1l0.6,0.5c0.1,0.1,0.1,0.1,0.1,0.2c0,0.1-0.1,0.1-0.2,0.1h-1.9
		c-0.1,0.5-0.3,1.7-1.9,1.9c-0.1-0.4-0.3-0.8-0.9-1.1l0-0.1c0.7,0.1,1.1,0.1,1.1,0.1c0.3,0,0.6,0,0.8-0.8h-3.1c-0.1,0.8-0.1,1-0.7,1
		c-0.2,0-0.4,0-0.4-0.3c0-0.1,0-0.3,0.1-0.5c0.3-1.7,0.4-2.5,0.5-3.1c-0.1,0-0.7,0-1.2,0.1l-0.3-0.5c0.4,0,0.5,0,1.5,0.1
		c0,0,0,0,0-0.1c0.2-2,0.3-2.2,0.3-2.5c0-0.2,0-0.5-0.1-0.6c-0.4,0.6-0.8,1-1.1,1.4l-0.1-0.1c0.8-1.5,1.6-3.5,1.6-4.4
		c0-0.2,0-0.4-0.1-0.5L138,44c0.1,0,0.2,0.1,0.2,0.2c0,0.1-0.1,0.2-0.4,0.3c-0.2,0.5-0.4,0.9-0.6,1.4h3.9l0.5-0.7
		c0.1-0.1,0.2-0.2,0.2-0.2c0.1,0,0.1,0,0.2,0.1l0.7,0.7c0.1,0.1,0.1,0.1,0.1,0.2c0,0.1-0.1,0.1-0.2,0.1H137
		c-0.1,0.3-0.2,0.4-0.5,0.9l1.2,0.6h2.3l0.3-0.4c0.1-0.1,0.1-0.1,0.2-0.1s0.1,0,0.2,0.1l0.5,0.4c0.1,0.1,0.2,0.2,0.2,0.2
		c0,0.2-0.2,0.3-0.4,0.4c0,0.3-0.1,1.6-0.1,1.9h0.4l0.5-0.6c0.1-0.1,0.1-0.2,0.2-0.2c0.1,0,0.1,0,0.2,0.1l0.6,0.6
		c0.1,0.1,0.1,0.1,0.1,0.2C143.1,50.6,142.9,50.6,142.8,50.6z M137.1,50.6c-0.1,0.4-0.3,2.3-0.3,2.6h1c0.2-0.9,0.3-1.9,0.4-2.6
		H137.1z M137.4,48c-0.1,0.4-0.2,2-0.3,2.3h1.1c0-0.5,0.1-1.8,0.1-2.3H137.4z M139,50.6c-0.1,1.3-0.2,2-0.4,2.6h1.2
		c0.2-0.9,0.2-1.7,0.2-2.6H139z M139.2,48c0,0.3,0,1-0.1,2.3h1.1c0-1,0-1.7,0-2.3H139.2z"/>
	<path d="M155.5,45l0.4-0.3c0.1-0.1,0.1-0.1,0.2-0.1s0.1,0.1,0.2,0.1l0.7,0.5c0.1,0.1,0.1,0.1,0.1,0.2c0,0.2-0.4,0.4-0.5,0.4
		c0,1.3,0,5,0.1,7.1c0,0.2,0.1,1.1,0.1,1.3c0,0.5-0.5,0.7-0.7,0.7c-0.4,0-0.4-0.2-0.4-0.8h-7.4c0,0.1,0,0.5,0,0.5
		c-0.1,0.3-0.5,0.4-0.7,0.4c-0.2,0-0.4-0.1-0.4-0.4c0-0.2,0-0.8,0-1c0.1-1.9,0.1-3.8,0.1-5.6c0-2.5-0.1-3-0.2-3.8l1.2,0.7H155.5z
		 M148.2,45.3v4h3.2v-4H148.2z M148.2,49.6v4.2h3.2v-4.2H148.2z M155.6,49.3v-4h-3.3v4H155.6z M155.6,53.8v-4.2h-3.3v4.2H155.6z"/>
</g>
</svg>
